<svg width="100" height="100" viewBox="0 0 24 24" fill="none" xmlns="http://www.w3.org/2000/svg">
<path fill-rule="evenodd" clip-rule="evenodd" d="M2.68766 3.60957C2.90329 3.43706 3.21793 3.47202 3.39044 3.68766L5.00909 5.71097L6.35591 4.10469C6.95659 3.38828 8.05915 3.38995 8.65766 4.10817L10 5.71898L11.3477 4.10178C11.9474 3.38214 13.0526 3.38215 13.6523 4.10178L15.1523 5.90178C15.377 6.17135 15.5 6.51115 15.5 6.86205V7.80301C15.8346 7.48228 16.1246 7.22511 16.3969 7.03064C16.9124 6.66238 17.3878 6.5 18 6.5C18.3955 6.5 18.8442 6.68662 19.2432 6.99499C19.6539 7.31235 20.049 7.78532 20.3319 8.42193C20.9015 9.70359 20.9989 11.599 19.9642 14.1857C19.2092 16.0734 18.0068 17.3327 16.746 18.1494C17.2738 18.5639 18.0154 18.8875 19.0552 19.0031C19.3297 19.0336 19.5274 19.2808 19.4969 19.5552C19.4664 19.8297 19.2192 20.0274 18.9448 19.9969C17.5318 19.84 16.5202 19.3366 15.8206 18.6696C14.5444 19.2866 13.305 19.5 12.5 19.5C12.2239 19.5 12 19.2761 12 19C12 18.7239 12.2239 18.5 12.5 18.5C13.1421 18.5 14.1281 18.3364 15.1676 17.8716C15.1665 17.8697 15.1653 17.8679 15.1642 17.866C14.5298 16.8566 14.4123 15.7285 14.5 14.97V6.86205C14.5 6.74508 14.459 6.63182 14.3841 6.54196L12.8841 4.74196C12.6842 4.50208 12.3158 4.50208 12.1159 4.74196L10.5 6.68103V17C10.5 17.2762 10.2761 17.5 10 17.5C9.72386 17.5 9.5 17.2762 9.5 17V6.68103L7.88944 4.74835C7.68993 4.50895 7.32241 4.50839 7.12219 4.74719L5.5 6.68188V17C5.5 17.2761 5.27615 17.5 5 17.5C4.72386 17.5 4.5 17.2761 4.5 17V6.67539L2.60957 4.31235C2.43706 4.09672 2.47202 3.78207 2.68766 3.60957ZM15.5 15.0063C15.5001 15.0017 15.5001 14.997 15.5 14.9924L15.5 9.20717C16.178 8.52988 16.6086 8.10832 16.9781 7.84437C17.3376 7.58763 17.6122 7.5 18 7.5C18.1045 7.5 18.3433 7.56338 18.6318 7.78627C18.9086 8.00016 19.201 8.33969 19.4181 8.82807C19.8485 9.79641 20.0011 11.401 19.0358 13.8143C18.3403 15.5529 17.2151 16.6865 16.0551 17.4024C16.0399 17.3796 16.0252 17.3568 16.0108 17.334C15.6258 16.7213 15.4856 16.0423 15.4749 15.5H15.5V15.0063Z" fill="white"/>
</svg>
